<svg xmlns="http://www.w3.org/2000/svg" viewBox="0 0 166.67 79.45"><defs><style>.cls-1{fill:#b7312c;}</style></defs><g id="Layer_2" data-name="Layer 2"><g id="Layer_1-2" data-name="Layer 1"><path class="cls-1" d="M22.89.85c-2.63,0-2.59,1.28-2.59,5.28v9.45c0,4.46-2.79,7.8-8.56,7.8-5.41,0-8.66-2.62-8.76-8.2v-12C3,.92,1.74.89,0,.85V0C1.54,0,3.05.07,4.52.07s3,0,4.66-.07V.85c-1.74,0-3,.07-3,2.36V14.36c0,3.9,1.28,7.68,6.39,7.68,5.45,0,6-4.2,6-6.46V6.23c0-5.38-.2-5.28-3.12-5.38V0c1.38,0,2.76.07,4.14.07C20.69.07,21.77,0,22.89,0Z"/><path class="cls-1" d="M40,17.17h-.53L27.43,4v8.56c0,3.17.25,3.81,2.73,3.81V17c-1,0-2,0-3.05,0s-2.05,0-3.06,0v-.6c1.4,0,2.46,0,2.46-2.91V4.23c0-2-.85-2.68-2.82-2.68V1c.71,0,1.4.05,2.11.05S27.06,1,27.68,1c.94,1.4,3.08,3.49,5.69,6.38,2,2.16,4.11,4.43,5.67,6.13V4.32c0-2.11-.48-2.75-2.78-2.77V1C37.32,1,38.4,1,39.45,1c.9,0,1.77-.05,2.67-.05v.6c-1.4,0-2.16.11-2.16,2.36Z"/><path class="cls-1" d="M45.42,3.2c0-1.61-.87-1.63-2.09-1.65V1C44.41,1,45.47,1,46.5,1S48.61,1,49.76,1v.6c-1.22,0-2.09,0-2.09,1.65V14.72c0,1.61.87,1.63,2.09,1.65V17c-1.1,0-2.09,0-3.1,0s-2.18,0-3.33,0v-.6c1.22,0,2.09,0,2.09-1.65Z"/><path class="cls-1" d="M54.72,7.81c-.58-1.47-1.24-3-1.77-4.45s-.9-1.81-2.41-1.81V1C51.62,1,52.7,1,53.77,1s2-.05,2.92-.05v.6c-.34,0-.67,0-1,.07a.56.56,0,0,0-.59.55,25.16,25.16,0,0,0,1.46,4.2l3.06,7.84,1.74-4.54c.55-1.49,1.19-3,1.68-4.45a10.85,10.85,0,0,0,.71-2.62c0-1.08-.92-1-1.75-1V1c.9,0,1.82.05,2.71.05.71,0,1.42,0,2.14-.05v.6a1.62,1.62,0,0,0-1.54.89c-.14.25-1.7,4.23-1.75,4.34l-4.2,10.53h-.84Z"/><path class="cls-1" d="M72.2,8.2h3c1.86,0,1.86-1.44,1.93-2h.46c-.05.5-.09,1.74-.09,2.57s.11,1.81.09,2.55h-.46c0-2.21-.73-2.21-2.5-2.21H72.2V13c0,2.55.1,3.19,2.37,3.19H76c2.25-.11,3.26-.41,4.15-2.86l.56.09a29.77,29.77,0,0,0-1,3.51c-2.29,0-4.59,0-6.88,0-1.7,0-3.4,0-5.1,0v-.6c2,0,2.19-.37,2.19-2.59V3.59c0-1.88-.37-2-2.19-2V1c1.54.05,3.1.05,4.64.05C74.61,1,76.79,1,79,1V4.37l-.46.11c-.34-2.15-1.38-2.8-3.67-2.8H72.2Z"/><path class="cls-1" d="M85.81,9.4v5.32c0,1.61.88,1.63,2.09,1.65V17c-1.1,0-2.09,0-3.1,0s-2.18,0-3.32,0v-.6c1.14.07,2.08-.23,2.08-1.54V3.2c0-1.61-.87-1.63-2.08-1.65V1C82.74,1,83.84,1,85,1,85.77,1,86.57,1,88,1c4.34,0,5.3,2.43,5.3,4.06a4.23,4.23,0,0,1-3.26,3.93c2.09,3.05,3.19,4.89,4.18,6a3.32,3.32,0,0,0,2.59,1.44V17c-.57,0-1.15,0-1.72,0s-1.31,0-1.95,0A54,54,0,0,1,87.9,9.4Zm1.38-7.72a7.54,7.54,0,0,0-1.38.14V8.55A6.83,6.83,0,0,0,87,8.66C89.85,8.66,91,6.8,91,5.15,91,3.15,89.9,1.68,87.19,1.68Z"/><path class="cls-1" d="M96.71,13.18h.53c.39,1.72,1.68,3.4,3.58,3.4a3,3,0,0,0,3.15-3c0-4.27-6.8-3-6.8-8.43,0-3,2.11-4.49,4.91-4.49a18.47,18.47,0,0,1,2.8.34l.37,2.94h-.53a2.78,2.78,0,0,0-3-2.55A2.69,2.69,0,0,0,99,4.28c0,4.27,7.07,3.1,7.07,8.37,0,3-2.69,4.66-5.4,4.66a8.36,8.36,0,0,1-3.51-.78Z"/><path class="cls-1" d="M109.64,3.2c0-1.61-.88-1.63-2.09-1.65V1c1.08,0,2.13.05,3.16.05S112.83,1,114,1v.6c-1.21,0-2.08,0-2.08,1.65V14.72c0,1.61.87,1.63,2.08,1.65V17c-1.1,0-2.08,0-3.09,0s-2.19,0-3.33,0v-.6c1.21,0,2.09,0,2.09-1.65Z"/><path class="cls-1" d="M129.56,4h-.62c-.07-1.24,0-2.07-1.84-2.07h-3.49V14.72c0,1.61.87,1.63,2.09,1.65V17c-1.1,0-2.09,0-3.1,0s-2.18,0-3.33,0v-.6c1.22,0,2.09,0,2.09-1.65V1.89h-3c-2.07,0-2.16.57-2.55,2.07h-.6l.26-3.65h.45c.26.62.88.64,1.45.64h10.42c.82,0,1.4-.21,1.49-.64h.48Z"/><path class="cls-1" d="M139.68,14.72c0,1.61.87,1.63,2.08,1.65V17c-1.14,0-2.2,0-3.25,0s-2.09,0-3.17,0v-.6c1.22,0,2.09,0,2.09-1.65V9.17l-4.8-6.61c-.66-.94-.78-.9-2.13-1V1c.43,0,2.13.05,3.19.05s1.86-.05,2.8-.05v.6c-.37,0-1.29,0-1.29.48A3.7,3.7,0,0,0,136,3.45L139.17,8l3-4.11c.27-.39.89-1.12.89-1.65s-.46-.66-1.63-.66V1c.87,0,1.77.05,2.64.05C144.7,1,145.32,1,146,1v.6c-1,0-1.4.64-1.9,1.33L139.68,8.8Z"/><path class="cls-1" d="M27.16,24.52c0-3.08-1.6-2.88-3.14-2.91v-.89c1.33.07,2.7.07,4,.07s3.39-.07,5.92-.07c8.86,0,13.69,5.92,13.69,12,0,3.39-2,11.91-14.1,11.91-1.74,0-3.35-.07-5-.07s-3,0-4.58.07v-.89c2.05-.21,3-.27,3.14-2.6Zm3.36,16c0,2.64,1.88,2.94,3.55,2.94,7.39,0,9.82-5.57,9.82-10.67,0-6.4-4.1-11-10.71-11-1.4,0-2.05.11-2.66.14Z"/><path class="cls-1" d="M51.53,26.52c0-1.54-.84-1.57-2-1.59v-.57c1,0,2,0,3,0s2,0,3.12,0v.57c-1.16,0-2,.05-2,1.59V37.58c0,1.54.84,1.56,2,1.59v.57c-1,0-2-.05-3-.05s-2.09,0-3.19.05v-.57c1.16,0,2-.05,2-1.59Z"/><path class="cls-1" d="M57.28,36.1h.51c.37,1.65,1.6,3.26,3.43,3.26a2.88,2.88,0,0,0,3-2.93c0-4.1-6.52-2.88-6.52-8.08,0-2.85,2-4.32,4.72-4.32a18.51,18.51,0,0,1,2.68.33l.36,2.82H65a2.68,2.68,0,0,0-2.84-2.45,2.59,2.59,0,0,0-2.65,2.82c0,4.1,6.79,3,6.79,8.05,0,2.86-2.58,4.47-5.18,4.47a8.2,8.2,0,0,1-3.37-.75Z"/><path class="cls-1" d="M81,27.25h-.59c-.07-1.19,0-2-1.76-2H75.26V37.58c0,1.54.83,1.56,2,1.59v.57c-1.06,0-2-.05-3-.05s-2.1,0-3.2.05v-.57c1.17,0,2-.05,2-1.59V25.26H70.21c-2,0-2.07.55-2.44,2h-.58l.24-3.51h.45c.24.6.83.62,1.38.62h10c.79,0,1.34-.2,1.43-.62h.46Z"/><path class="cls-1" d="M86.25,32.47v5.11c0,1.54.84,1.56,2,1.59v.57c-1,0-2-.05-3-.05s-2.1,0-3.2.05v-.57c1.1.06,2-.22,2-1.48V26.52c0-1.54-.84-1.57-2-1.59v-.57c1.22,0,2.27,0,3.35,0,.77,0,1.55,0,3,0,4.16,0,5.09,2.33,5.09,3.9A4.07,4.07,0,0,1,90.35,32c2,2.93,3.06,4.69,4,5.75a3.18,3.18,0,0,0,2.49,1.39v.57c-.55,0-1.11-.05-1.66-.05s-1.25,0-1.87.05a52.24,52.24,0,0,1-5.07-7.27Zm1.32-7.41a6.76,6.76,0,0,0-1.32.14v6.45a6.2,6.2,0,0,0,1.17.11c2.71,0,3.76-1.78,3.76-3.37C91.18,26.47,90.17,25.06,87.57,25.06Z"/><path class="cls-1" d="M99.33,26.52c0-1.54-.84-1.57-2-1.59v-.57c1,0,2,0,3,0s2,0,3.13,0v.57c-1.17,0-2,.05-2,1.59V37.58c0,1.54.84,1.56,2,1.59v.57c-1.06,0-2-.05-3-.05s-2.09,0-3.19.05v-.57c1.16,0,2-.05,2-1.59Z"/><path class="cls-1" d="M118,28.35h-.56c-.41-2.58-2.24-3.62-4.71-3.62s-6.21,1.7-6.21,7c0,4.45,3.17,7.64,6.56,7.64a4.47,4.47,0,0,0,4.43-3.81l.51.13-.51,3.22a12.42,12.42,0,0,1-4.87,1.17c-5.15,0-8.42-3.33-8.42-8.29,0-4.51,4-7.75,8.36-7.75a15.82,15.82,0,0,1,5.2,1.17Z"/><path class="cls-1" d="M132.77,27.25h-.59c-.07-1.19,0-2-1.76-2h-3.35V37.58c0,1.54.83,1.56,2,1.59v.57c-1,0-2-.05-3-.05s-2.09,0-3.2.05v-.57c1.17,0,2-.05,2-1.59V25.26H122c-2,0-2.07.55-2.44,2H119l.25-3.51h.44c.24.6.83.62,1.38.62h10c.79,0,1.34-.2,1.43-.62H133Z"/><path class="cls-1" d="M146.56,24a8,8,0,1,1-7.93,8.11A8,8,0,0,1,146.56,24Zm.2,15.33c3.22,0,5.24-2.77,5.24-6.76,0-3.35-1.94-7.87-5.7-7.87-3.22,0-5.25,2.78-5.25,6.77C141.05,34.85,143,39.36,146.76,39.36Z"/><path class="cls-1" d="M158.89,37.58c0,1.54.84,1.56,2,1.59v.57c-1.1,0-2.12-.05-3.13-.05s-2,0-3.13.05v-.57c1.92,0,2.09-.36,2.09-2.49V26.89c0-1.8-.35-1.89-2.09-2v-.57c1.57,0,3.17,0,4.78,0,2,0,4,0,6,0l.13,3.11-.51.08c-.22-1.87-1.14-2.49-3.55-2.49h-2.6v6.26h2.6c1.81,0,2-.26,2.25-1.83h.51c-.05.42-.09,1.61-.09,2.4s0,1.74.09,2.34h-.44c-.27-1.52-.29-2-2.23-2h-2.69Z"/><path class="cls-1" d="M63,49.84h-.8c-.62-3.78-3.3-5.29-6.92-5.29S46.16,47,46.16,54.79c0,6.52,4.66,11.21,9.63,11.21a6.56,6.56,0,0,0,6.49-5.59l.75.19-.75,4.72A18.08,18.08,0,0,1,55.14,67c-7.55,0-12.33-4.88-12.33-12.15,0-6.62,5.91-11.37,12.24-11.37a23.39,23.39,0,0,1,7.62,1.71Z"/><path class="cls-1" d="M72.41,46.6a8.23,8.23,0,1,1-8.14,8.32A8.2,8.2,0,0,1,72.41,46.6Zm.21,15.74c3.3,0,5.38-2.85,5.38-6.94,0-3.44-2-8.07-5.86-8.07-3.3,0-5.38,2.84-5.38,6.94C66.76,57.7,68.75,62.34,72.62,62.34Z"/><path class="cls-1" d="M92.77,62.72c-1.93,0-3.83,0-5.75,0s-4,0-6,0v-.58c1.13.06,2.06-.23,2.06-1.52V49.16c0-1.59-.86-1.61-2.06-1.63v-.59c1.06,0,2.1.05,3.12.05s2.08,0,3.21-.05v.59c-1.2,0-2.06,0-2.06,1.63V59.63c0,1.67.36,2.37,3.58,2.37,2.62,0,3.52-.63,4.22-2.83l.5.09Z"/><path class="cls-1" d="M108.73,47.53c-1.81,0-1.79.88-1.79,3.64v6.51c0,3.08-1.92,5.38-5.9,5.38-3.73,0-6-1.81-6-5.65V49.16c0-1.59-.86-1.61-2.06-1.63v-.59c1.07,0,2.11.05,3.12.05s2.09,0,3.22-.05v.59c-1.2,0-2.06,0-2.06,1.63v7.68c0,2.7.88,5.3,4.41,5.3,3.75,0,4.11-2.9,4.11-4.46V51.24c0-3.71-.13-3.64-2.14-3.71v-.59c1,0,1.9.05,2.84.05.77,0,1.52-.05,2.29-.05Z"/><path class="cls-1" d="M119.72,59.63c2-4.23,4.23-8.39,6.1-12.69.61,0,1.25.05,1.86.05s1.33-.05,2-.05v.59a2.79,2.79,0,0,0-1.59.27c-.29.23-.43.61-.43,1.36,0,3.57.21,7.37.3,10.78,0,1.7.2,2.2,2.46,2.2v.58c-1.24,0-2.48,0-3.73,0s-2.19,0-3.3,0v-.58a3.92,3.92,0,0,0,1.74-.21c.41-.22.59-.65.59-1.53l-.16-10.79h0l-5.34,11.08a23.15,23.15,0,0,0-.88,2.24h-.45c-1.93-4.32-4.1-8.55-6.25-12.82h0l-.18,8.18c0,.3,0,1.11,0,1.43,0,1.11.11,1.72.47,2a2.73,2.73,0,0,0,1.83.39v.58c-.93,0-1.88,0-2.8,0s-2,0-3,0v-.58c1.61,0,2.6-.39,2.69-3.42s.25-6.17.25-9.27c0-.79-.11-1.29-.43-1.56a2.38,2.38,0,0,0-1.56-.36v-.59c.79,0,1.6.05,2.4.05.47,0,1-.05,1.44-.05Z"/><path class="cls-1" d="M130.61,62.14c1.13.06,2.06-.23,2.06-1.52V49.16c0-1.59-.86-1.61-2.06-1.63v-.59c.64,0,1.27.05,1.88.05h.7c1.29,0,2.13-.05,2.94-.05,1.68,0,5.27.48,5.27,3.66,0,2.11-1.9,3.19-3.64,3.6v0c1.7-.09,5.09,1,5.09,4.23,0,2.42-2.08,4.25-6.08,4.25-1.07,0-2.13,0-3.19,0s-2,0-3,0Zm4.28-8h.86c1.83,0,3.43-.59,3.43-3.44,0-2.6-1.53-3-3.34-3-.3,0-.61,0-1,.05Zm0,6.06c0,1,0,1.85,2,1.85,2.69,0,3.58-1.83,3.58-3.23,0-3.24-2-4-4.25-4h-1.36Z"/><path class="cls-1" d="M145.58,49.16c0-1.59-.86-1.61-2.05-1.63v-.59c1.06,0,2.1.05,3.12.05s2.08,0,3.21-.05v.59c-1.2,0-2.06,0-2.06,1.63V60.51c0,1.58.86,1.6,2.06,1.63v.58c-1.09,0-2.06,0-3.05,0s-2.15,0-3.28,0v-.58c1.19,0,2.05,0,2.05-1.63Z"/><path class="cls-1" d="M162.63,58.22a23.42,23.42,0,0,0,1.29,3.31,2.15,2.15,0,0,0,1.74.61v.58c-.86,0-1.74,0-2.6,0-1.11,0-2.19,0-3.3,0v-.58h.41c.56,0,1.24-.12,1.24-.75a5.51,5.51,0,0,0-.34-1.31l-1.13-3.28h-5.31l-.5,1.58a11.11,11.11,0,0,0-.61,2.69c0,1.07.75,1,1.54,1.07h.52v.58c-.88,0-1.79,0-2.67,0s-1.83,0-2.74,0v-.58c1.38-.16,1.63-.34,2.2-1.61.36-.81.63-1.7.92-2.53l2.9-8.07a6.94,6.94,0,0,0,.47-2,2.69,2.69,0,0,0,0-.59,2.79,2.79,0,0,0,1.31-1h.38Zm-7.69-2.35h4.66l-2.42-6.65h0Z"/><path class="cls-1" d="M153.7.93a3.64,3.64,0,1,1-3.6,3.68A3.62,3.62,0,0,1,153.7.93Zm.09,7c1.46,0,2.38-1.26,2.38-3.07,0-1.52-.88-3.57-2.59-3.57-1.46,0-2.38,1.26-2.38,3.07C151.2,5.84,152.08,7.89,153.79,7.89Z"/><path class="cls-1" d="M159.3,7.08c0,.7.38.71.91.72v.26l-1.42,0-1.42,0V7.8c.87,0,.95-.16.95-1.13V2.23c0-.82-.16-.86-.95-.89V1.08l2.17,0c.91,0,1.83,0,2.72,0l.06,1.41-.23,0c-.1-.85-.52-1.13-1.61-1.13H159.3V4.24h1.18c.82,0,.89-.12,1-.83h.23c0,.19,0,.73,0,1.09s0,.79,0,1.06h-.2c-.12-.69-.13-.91-1-.91H159.3Z"/><path class="cls-1" d="M152.33,11.39h-.27c0-.54,0-.9-.8-.9h-1.52v5.59c0,.7.38.71.91.72v.26l-1.35,0-1.45,0V16.8c.53,0,.91,0,.91-.72V10.49h-1.31c-.9,0-.94.25-1.11.9h-.26l.11-1.59h.2c.11.27.38.28.63.28h4.54c.36,0,.61-.09.65-.28h.21Z"/><path class="cls-1" d="M158.77,13.24V11.06c0-.7-.38-.71-.91-.72v-.26l1.48,0,1.32,0v.26c-.53,0-.91,0-.91.72v5c0,.7.38.71.91.72v.26l-1.35,0-1.45,0V16.8c.53,0,.91,0,.91-.72V13.65h-4v2.43c0,.7.38.71.91.72v.26l-1.35,0-1.45,0V16.8c.53,0,.91,0,.91-.72v-5c0-.7-.38-.71-.91-.72v-.26l1.38,0,1.42,0v.26c-.53,0-.91,0-.91.72v2.18Z"/><path class="cls-1" d="M163,13.24h1.32c.81,0,.81-.63.84-.86h.2c0,.22,0,.76,0,1.12s.05.79,0,1.11h-.2c0-1-.32-1-1.09-1H163v1.7c0,1.11,0,1.39,1,1.39h.62c1,0,1.42-.18,1.81-1.25l.24,0a13.26,13.26,0,0,0-.41,1.53l-3,0c-.74,0-1.48,0-2.22,0V16.8c.87,0,1-.16,1-1.13V11.23c0-.82-.16-.86-1-.89v-.26c.67,0,1.35,0,2,0,1,0,1.91,0,2.88,0v1.49l-.2,0c-.15-.94-.6-1.22-1.6-1.22H163Z"/><path class="cls-1" d="M142,78.11c0,.51.27.69,1,.69h.72v.41l-2.5,0c-.89,0-1.76,0-2.62,0V78.8h.88c.76,0,1-.18,1-.69V69.46c-.72.41-1.51.84-2.27,1.22L138,70.3A33.62,33.62,0,0,0,141.8,68l.16.06Z"/><path class="cls-1" d="M148.78,73.33c1.11.61,2.33,1.7,2.33,3.07a3.17,3.17,0,0,1-3.21,3,2.81,2.81,0,0,1-3-2.58c0-1.46,1-2.22,2.32-3-1-.68-2.1-1.52-2.1-2.86a2.89,2.89,0,0,1,3.08-3A2.56,2.56,0,0,1,151,70.5C151,71.84,149.83,72.76,148.78,73.33Zm-1.26.83A3,3,0,0,0,146.06,77a1.86,1.86,0,0,0,1.83,2A1.8,1.8,0,0,0,149.75,77C149.75,75.7,148.52,74.76,147.52,74.16Zm.64-5.74a1.79,1.79,0,0,0-1.78,2c0,1.26,1.1,2.07,2,2.7a3,3,0,0,0,1.43-2.55C149.84,69.27,149.08,68.42,148.16,68.42Z"/><path class="cls-1" d="M155,68.25h4l-.33,1.27H155.1l-.63,1.65c1.89,1,3.73,2,3.73,4.39a3.89,3.89,0,0,1-4,3.89c-.82,0-2.25-.46-2.25-1.27a.45.45,0,0,1,.49-.48c.65,0,.62,1.24,2.08,1.24a2.45,2.45,0,0,0,2.4-2.69c0-2.16-1.76-3.09-3.45-3.93Z"/><path class="cls-1" d="M163.94,78.11c0,.51.27.69,1,.69h.71v.41l-2.49,0c-.89,0-1.76,0-2.62,0V78.8h.87c.77,0,1-.18,1-.69V69.46c-.72.41-1.51.84-2.27,1.22L160,70.3A33.62,33.62,0,0,0,163.78,68l.16.06Z"/><rect class="cls-1" x="64.78" y="71.89" width="70.49" height="0.95"/></g></g></svg>