<svg xmlns="http://www.w3.org/2000/svg" viewBox="0 0 435.66 24.09"><defs><style>.cls-1{fill:#fff;}</style></defs><g id="Layer_2" data-name="Layer 2"><g id="Layer_1-2" data-name="Layer 1"><path class="cls-1" d="M22.89,1.34c-2.63,0-2.59,1.28-2.59,5.28v9.44c0,4.46-2.79,7.81-8.56,7.81-5.41,0-8.66-2.62-8.76-8.2V3.7C3,1.41,1.74,1.37,0,1.34V.49c1.54,0,3.05.06,4.52.06s3,0,4.66-.06v.85c-1.74,0-3,.07-3,2.36V14.85c0,3.9,1.28,7.67,6.39,7.67,5.45,0,6-4.19,6-6.46V6.72c0-5.38-.2-5.28-3.12-5.38V.49c1.38,0,2.76.06,4.14.06,1.11,0,2.19-.06,3.31-.06Z"/><path class="cls-1" d="M40,17.66h-.53l-12-13.17v8.56c0,3.17.25,3.81,2.73,3.81v.6c-1,0-2-.05-3.05-.05s-2.05,0-3.06.05v-.6c1.4,0,2.46,0,2.46-2.91V4.72c0-2-.85-2.68-2.82-2.68v-.6c.71,0,1.4,0,2.11,0s1.26,0,1.88,0c.94,1.4,3.08,3.49,5.69,6.38C35.32,10,37.48,12.25,39,14V4.81C39,2.7,38.56,2.06,36.26,2v-.6c1.06,0,2.14,0,3.19,0,.9,0,1.77,0,2.67,0V2C40.72,2,40,2.15,40,4.4Z"/><path class="cls-1" d="M45.42,3.69c0-1.61-.87-1.63-2.09-1.65v-.6c1.08,0,2.14,0,3.17,0s2.11,0,3.26,0V2c-1.22,0-2.09,0-2.09,1.65V15.21c0,1.6.87,1.63,2.09,1.65v.6c-1.1,0-2.09-.05-3.1-.05s-2.18,0-3.33.05v-.6c1.22,0,2.09-.05,2.09-1.65Z"/><path class="cls-1" d="M54.72,8.3c-.58-1.47-1.24-3-1.77-4.45S52.05,2,50.54,2v-.6c1.08,0,2.16,0,3.23,0s2,0,2.92,0V2c-.34,0-.67,0-1,.06a.57.57,0,0,0-.59.56,24.75,24.75,0,0,0,1.46,4.19l3.06,7.85,1.74-4.54c.55-1.49,1.19-3,1.68-4.45a10.85,10.85,0,0,0,.71-2.62c0-1.08-.92-1-1.75-1v-.6c.9,0,1.82,0,2.71,0,.71,0,1.42,0,2.14,0V2a1.62,1.62,0,0,0-1.54.89c-.14.25-1.7,4.22-1.75,4.34L59.37,17.8h-.84Z"/><path class="cls-1" d="M72.2,8.69h3c1.86,0,1.86-1.44,1.93-2h.46c-.05.5-.09,1.74-.09,2.57s.11,1.81.09,2.55h-.46c0-2.21-.73-2.21-2.5-2.21H72.2v3.9c0,2.55.1,3.19,2.37,3.19H76c2.25-.11,3.26-.41,4.15-2.87l.56.1a29.25,29.25,0,0,0-1,3.51c-2.29,0-4.59-.05-6.88-.05-1.7,0-3.4,0-5.1.05v-.6c2,0,2.19-.37,2.19-2.59V4.08c0-1.88-.37-2-2.19-2v-.6c1.54,0,3.1,0,4.64,0,2.2,0,4.38,0,6.61,0V4.86L78.56,5c-.34-2.15-1.38-2.8-3.67-2.8H72.2Z"/><path class="cls-1" d="M85.81,9.88v5.33c0,1.6.88,1.63,2.09,1.65v.6c-1.1,0-2.09-.05-3.1-.05s-2.18,0-3.32.05v-.6c1.14.07,2.08-.23,2.08-1.54V3.69c0-1.61-.87-1.63-2.08-1.65v-.6c1.26,0,2.36,0,3.48,0,.81,0,1.61,0,3.08,0,4.34,0,5.3,2.43,5.3,4.06a4.21,4.21,0,0,1-3.26,3.92c2.09,3.06,3.19,4.89,4.18,6a3.32,3.32,0,0,0,2.59,1.44v.6c-.57,0-1.15-.05-1.72-.05s-1.31,0-1.95.05A53.52,53.52,0,0,1,87.9,9.88Zm1.38-7.71a7.54,7.54,0,0,0-1.38.14V9A6.82,6.82,0,0,0,87,9.15C89.85,9.15,91,7.29,91,5.64,91,3.64,89.9,2.17,87.19,2.17Z"/><path class="cls-1" d="M96.71,13.67h.53c.39,1.72,1.68,3.4,3.58,3.4A3,3,0,0,0,104,14c0-4.26-6.8-3-6.8-8.42,0-3,2.11-4.5,4.91-4.5a18.47,18.47,0,0,1,2.8.35l.37,2.94h-.53a2.78,2.78,0,0,0-3-2.55A2.69,2.69,0,0,0,99,4.77c0,4.26,7.07,3.09,7.07,8.37,0,3-2.69,4.66-5.4,4.66A8.36,8.36,0,0,1,97.17,17Z"/><path class="cls-1" d="M109.64,3.69c0-1.61-.88-1.63-2.09-1.65v-.6c1.08,0,2.13,0,3.16,0s2.12,0,3.26,0V2c-1.21,0-2.08,0-2.08,1.65V15.21c0,1.6.87,1.63,2.08,1.65v.6c-1.1,0-2.08-.05-3.09-.05s-2.19,0-3.33.05v-.6c1.21,0,2.09-.05,2.09-1.65Z"/><path class="cls-1" d="M129.56,4.44h-.62c-.07-1.23,0-2.06-1.84-2.06h-3.49V15.21c0,1.6.87,1.63,2.09,1.65v.6c-1.1,0-2.09-.05-3.1-.05s-2.18,0-3.33.05v-.6c1.22,0,2.09-.05,2.09-1.65V2.38h-3c-2.07,0-2.16.57-2.55,2.06h-.6L115.47.8h.45c.26.62.88.64,1.45.64h10.42c.82,0,1.4-.21,1.49-.64h.48Z"/><path class="cls-1" d="M139.68,15.21c0,1.6.87,1.63,2.08,1.65v.6c-1.14,0-2.2-.05-3.25-.05s-2.09,0-3.17.05v-.6c1.22,0,2.09-.05,2.09-1.65V9.65l-4.8-6.6c-.66-.95-.78-.9-2.13-1v-.6c.43,0,2.13,0,3.19,0s1.86,0,2.8,0V2c-.37,0-1.29,0-1.29.48A3.7,3.7,0,0,0,136,3.94l3.21,4.52,3-4.11c.27-.39.89-1.12.89-1.65S142.61,2,141.44,2v-.6c.87,0,1.77,0,2.64,0,.62,0,1.24,0,1.88,0V2c-1,0-1.4.64-1.9,1.33l-4.38,5.92Z"/><path class="cls-1" d="M171.16,4c0-3.08-1.6-2.88-3.14-2.91V.21c1.33.07,2.7.07,4,.07S175.44.21,178,.21c8.86,0,13.69,5.92,13.69,12,0,3.39-2,11.91-14.1,11.91-1.74,0-3.35-.07-5-.07s-3,0-4.58.07V23.2c2-.21,3-.28,3.14-2.6Zm3.36,16c0,2.63,1.88,2.94,3.55,2.94,7.39,0,9.82-5.57,9.82-10.67,0-6.4-4.1-11-10.71-11-1.4,0-2.05.11-2.66.14Z"/><path class="cls-1" d="M195.53,6c0-1.55-.84-1.57-2-1.59V3.85c1,0,2,0,3,0s2,0,3.12,0v.57c-1.16,0-2,0-2,1.59V17.07c0,1.54.84,1.56,2,1.58v.58c-1.05,0-2-.05-3-.05s-2.09,0-3.19.05v-.58c1.16,0,2,0,2-1.58Z"/><path class="cls-1" d="M201.28,15.59h.51c.37,1.65,1.6,3.26,3.43,3.26a2.88,2.88,0,0,0,3-2.93c0-4.1-6.52-2.88-6.52-8.08,0-2.85,2-4.32,4.72-4.32a17.22,17.22,0,0,1,2.68.33l.36,2.82H209a2.68,2.68,0,0,0-2.84-2.45A2.58,2.58,0,0,0,203.48,7c0,4.1,6.79,3,6.79,8,0,2.87-2.58,4.48-5.18,4.48a8.2,8.2,0,0,1-3.37-.75Z"/><path class="cls-1" d="M225,6.73h-.59c-.07-1.19,0-2-1.76-2h-3.35V17.07c0,1.54.83,1.56,2,1.58v.58c-1.06,0-2-.05-3-.05s-2.1,0-3.2.05v-.58c1.17,0,2,0,2-1.58V4.75h-2.89c-2,0-2.07.55-2.44,2h-.58l.24-3.5h.45c.24.6.83.62,1.38.62h10c.79,0,1.34-.2,1.43-.62h.46Z"/><path class="cls-1" d="M230.25,12v5.11c0,1.54.84,1.56,2,1.58v.58c-1.05,0-2-.05-3-.05s-2.1,0-3.2.05v-.58c1.1.07,2-.22,2-1.47V6c0-1.55-.84-1.57-2-1.59V3.85c1.22,0,2.27,0,3.35,0,.77,0,1.55,0,3,0,4.16,0,5.09,2.33,5.09,3.9a4.05,4.05,0,0,1-3.13,3.76c2,2.94,3.06,4.7,4,5.76a3.17,3.17,0,0,0,2.49,1.38v.58c-.55,0-1.11-.05-1.66-.05s-1.25,0-1.87.05A52.84,52.84,0,0,1,232.25,12Zm1.32-7.41a7.73,7.73,0,0,0-1.32.13v6.46a6.2,6.2,0,0,0,1.17.11c2.71,0,3.76-1.78,3.76-3.37C235.18,6,234.17,4.55,231.57,4.55Z"/><path class="cls-1" d="M243.33,6c0-1.55-.84-1.57-2-1.59V3.85c1,0,2,0,3,0s2,0,3.13,0v.57c-1.17,0-2,0-2,1.59V17.07c0,1.54.84,1.56,2,1.58v.58c-1.06,0-2-.05-3-.05s-2.09,0-3.19.05v-.58c1.16,0,2,0,2-1.58Z"/><path class="cls-1" d="M262,7.84h-.56c-.41-2.58-2.24-3.62-4.71-3.62s-6.21,1.7-6.21,7c0,4.45,3.17,7.64,6.56,7.64A4.48,4.48,0,0,0,261.53,15l.51.13-.51,3.22a12.42,12.42,0,0,1-4.87,1.17c-5.15,0-8.42-3.33-8.42-8.29,0-4.51,4-7.75,8.36-7.75a16.06,16.06,0,0,1,5.2,1.16Z"/><path class="cls-1" d="M276.77,6.73h-.59c-.07-1.19,0-2-1.76-2h-3.35V17.07c0,1.54.83,1.56,2,1.58v.58c-1.05,0-2-.05-3-.05s-2.09,0-3.2.05v-.58c1.17,0,2,0,2-1.58V4.75H266c-2,0-2.07.55-2.44,2H263l.25-3.5h.44c.24.6.83.62,1.38.62h10c.79,0,1.34-.2,1.43-.62H277Z"/><path class="cls-1" d="M290.56,3.52a8,8,0,1,1-7.93,8.11A8,8,0,0,1,290.56,3.52Zm.2,15.33c3.22,0,5.24-2.77,5.24-6.76,0-3.35-1.94-7.87-5.7-7.87-3.22,0-5.25,2.78-5.25,6.77C285.05,14.34,287,18.85,290.76,18.85Z"/><path class="cls-1" d="M302.89,17.07c0,1.54.84,1.56,2,1.58v.58c-1.1,0-2.12-.05-3.13-.05s-2,0-3.13.05v-.58c1.92,0,2.09-.35,2.09-2.49V6.38c0-1.81-.35-1.89-2.09-2V3.85c1.57,0,3.17,0,4.78,0,2,0,4,0,6,0l.13,3.1L309,7c-.22-1.87-1.14-2.49-3.55-2.49h-2.6v6.26h2.6c1.81,0,2-.26,2.25-1.83h.51c-.05.42-.09,1.61-.09,2.4s0,1.74.09,2.34h-.44c-.27-1.52-.29-2-2.23-2h-2.69Z"/><path class="cls-1" d="M333,6.33h-.8c-.62-3.78-3.3-5.3-6.92-5.3s-9.11,2.49-9.11,10.24c0,6.53,4.66,11.21,9.63,11.21a6.55,6.55,0,0,0,6.49-5.59l.75.2-.75,4.71a18.08,18.08,0,0,1-7.14,1.72c-7.55,0-12.33-4.88-12.33-12.15C312.81,4.75,318.72,0,325.05,0a23.39,23.39,0,0,1,7.62,1.71Z"/><path class="cls-1" d="M342.41,3.09a8.23,8.23,0,1,1-8.14,8.32A8.19,8.19,0,0,1,342.41,3.09Zm.21,15.74c3.3,0,5.38-2.85,5.38-6.94,0-3.44-2-8.08-5.86-8.08-3.3,0-5.38,2.85-5.38,7C336.76,14.19,338.75,18.83,342.62,18.83Z"/><path class="cls-1" d="M362.77,19.21c-1.93,0-3.83,0-5.75,0s-4,0-6,0v-.59c1.13.07,2.06-.22,2.06-1.51V5.64c0-1.58-.86-1.6-2.06-1.62V3.43c1.06,0,2.1,0,3.12,0s2.08,0,3.21,0V4c-1.2,0-2.06,0-2.06,1.62V16.12c0,1.67.36,2.37,3.58,2.37,2.62,0,3.52-.63,4.22-2.83l.5.09Z"/><path class="cls-1" d="M378.73,4c-1.81,0-1.79.88-1.79,3.64v6.51c0,3.08-1.92,5.38-5.9,5.38-3.73,0-6-1.81-6-5.65V5.64c0-1.58-.86-1.6-2.06-1.62V3.43c1.07,0,2.11,0,3.12,0s2.09,0,3.22,0V4c-1.2,0-2.06,0-2.06,1.62v7.69c0,2.69.88,5.29,4.41,5.29,3.75,0,4.11-2.89,4.11-4.45V7.73c0-3.71-.13-3.65-2.14-3.71V3.43c.95,0,1.9,0,2.84,0,.77,0,1.52,0,2.29,0Z"/><path class="cls-1" d="M389.72,16.12c2-4.23,4.23-8.39,6.1-12.69.61,0,1.25,0,1.86,0s1.33,0,2,0V4a2.79,2.79,0,0,0-1.59.27c-.29.22-.43.61-.43,1.35,0,3.58.21,7.38.3,10.79,0,1.7.2,2.19,2.46,2.19v.59c-1.24,0-2.48,0-3.73,0s-2.19,0-3.3,0v-.59a4.1,4.1,0,0,0,1.74-.2c.41-.22.59-.65.59-1.54L395.55,6.1h0l-5.34,11.08a23.15,23.15,0,0,0-.88,2.24h-.45c-1.93-4.32-4.1-8.55-6.25-12.83h0l-.18,8.19c0,.29,0,1.11,0,1.43,0,1.1.11,1.71.47,2a2.74,2.74,0,0,0,1.83.38v.59c-.93,0-1.88,0-2.8,0s-2,0-3,0v-.59c1.61,0,2.6-.38,2.69-3.41s.25-6.17.25-9.27c0-.79-.11-1.29-.43-1.56A2.38,2.38,0,0,0,379.79,4V3.43c.79,0,1.6,0,2.4,0,.47,0,1,0,1.44,0Z"/><path class="cls-1" d="M400.61,18.62c1.13.07,2.06-.22,2.06-1.51V5.64c0-1.58-.86-1.6-2.06-1.62V3.43c.64,0,1.27,0,1.88,0h.7c1.29,0,2.13,0,2.94,0,1.68,0,5.27.47,5.27,3.66,0,2.11-1.9,3.19-3.64,3.6v0c1.7-.09,5.09,1,5.09,4.23,0,2.42-2.08,4.25-6.08,4.25-1.07,0-2.13,0-3.19,0s-2,0-3,0Zm4.28-8h.86c1.83,0,3.43-.58,3.43-3.43,0-2.6-1.53-3-3.34-3-.3,0-.61,0-.95,0Zm0,6.06c0,1,0,1.86,2,1.86,2.69,0,3.58-1.83,3.58-3.23,0-3.24-2-4-4.25-4h-1.36Z"/><path class="cls-1" d="M415.58,5.64c0-1.58-.86-1.6-2.05-1.62V3.43c1.06,0,2.1,0,3.12,0s2.08,0,3.21,0V4c-1.2,0-2.06,0-2.06,1.62V17c0,1.58.86,1.6,2.06,1.62v.59c-1.09,0-2.06,0-3.05,0s-2.15,0-3.28,0v-.59c1.19,0,2.05,0,2.05-1.62Z"/><path class="cls-1" d="M432.63,14.71a23.25,23.25,0,0,0,1.29,3.3,2.12,2.12,0,0,0,1.74.61v.59c-.86,0-1.74,0-2.6,0-1.11,0-2.19,0-3.3,0v-.59h.41c.56,0,1.24-.11,1.24-.74a5.51,5.51,0,0,0-.34-1.31l-1.13-3.28h-5.31l-.5,1.58a11.11,11.11,0,0,0-.61,2.69c0,1.06.75,1,1.54,1.06h.52v.59c-.88,0-1.79,0-2.67,0s-1.83,0-2.74,0v-.59c1.38-.15,1.63-.33,2.2-1.6.36-.81.63-1.7.92-2.53l2.9-8.08a6.87,6.87,0,0,0,.47-2,2.69,2.69,0,0,0,0-.59,2.85,2.85,0,0,0,1.31-1h.38Zm-7.69-2.35h4.66l-2.42-6.65h0Z"/><path class="cls-1" d="M153.7,1.42a3.64,3.64,0,1,1-3.6,3.68A3.62,3.62,0,0,1,153.7,1.42Zm.09,7c1.46,0,2.38-1.26,2.38-3.07,0-1.52-.88-3.57-2.59-3.57-1.46,0-2.38,1.26-2.38,3.07C151.2,6.33,152.08,8.38,153.79,8.38Z"/><path class="cls-1" d="M159.3,7.57c0,.7.38.71.91.72v.26l-1.42,0-1.42,0V8.29c.87,0,.95-.16.95-1.13V2.72c0-.82-.16-.86-.95-.89V1.57l2.17,0c.91,0,1.83,0,2.72,0L162.32,3l-.23,0c-.1-.85-.52-1.13-1.61-1.13H159.3V4.73h1.18c.82,0,.89-.12,1-.83h.23c0,.19,0,.73,0,1.09s0,.79,0,1.06h-.2c-.12-.69-.13-.91-1-.91H159.3Z"/><path class="cls-1" d="M152.33,11.88h-.27c0-.54,0-.9-.8-.9h-1.52v5.59c0,.7.38.71.91.72v.26l-1.35,0-1.45,0v-.26c.53,0,.91,0,.91-.72V11h-1.31c-.9,0-.94.25-1.11.9h-.26l.11-1.59h.2c.11.27.38.28.63.28h4.54c.36,0,.61-.09.65-.28h.21Z"/><path class="cls-1" d="M158.77,13.73V11.55c0-.7-.38-.71-.91-.72v-.26l1.48,0,1.32,0v.26c-.53,0-.91,0-.91.72v5c0,.7.38.71.91.72v.26l-1.35,0-1.45,0v-.26c.53,0,.91,0,.91-.72V14.14h-4v2.43c0,.7.38.71.91.72v.26l-1.35,0-1.45,0v-.26c.53,0,.91,0,.91-.72v-5c0-.7-.38-.71-.91-.72v-.26l1.38,0,1.42,0v.26c-.53,0-.91,0-.91.72v2.18Z"/><path class="cls-1" d="M163,13.73h1.32c.81,0,.81-.63.84-.86h.2c0,.22,0,.76,0,1.12s.05.79,0,1.11h-.2c0-1-.32-1-1.09-1H163v1.7c0,1.11,0,1.39,1,1.39h.62c1-.05,1.42-.18,1.81-1.25l.24,0a13.26,13.26,0,0,0-.41,1.53l-3,0c-.74,0-1.48,0-2.22,0v-.26c.87,0,1-.16,1-1.13V11.72c0-.82-.16-.86-1-.89v-.26c.67,0,1.35,0,2,0,1,0,1.91,0,2.88,0v1.49l-.2,0c-.15-.94-.6-1.22-1.6-1.22H163Z"/></g></g></svg>